# xmcd
#
# Track frame offsets:
#	150
#	15150
#	33600
#	51225
#	67125
#	85575
#	103200
#	118875
#	137250
#	156450
#	174825
#	188550
#	204525
#	221700
#	247200
#	264900
#	283500
#	304950
#	320970
#
# Disc length: 4302 seconds
#
# Revision: 3
# Processed by: cddbd v1.5.2PL0 Copyright (c) Steve Scherf et al.
# Submitted via: audiograbber 1.83.01
#
DISCID=1b10cc13
DTITLE=Various Artist - SPC103
DYEAR=1900
DGENRE=Karaoke
TTITLE0=Carrie Underwood - Before He Cheats
TTITLE1=Carrie Underwood - Starts With Goodbye
TTITLE2=Faith Hill - Mississippi Girl
TTITLE3=Sugarland - Want To
TTITLE4=Sugarland - Just Might (Make Me Believe)
TTITLE5=Dixie Chicks - Not Ready To Make Nice
TTITLE6=Sara Evans - Cheatin'
TTITLE7=Rascal Flatts - My Wish
TTITLE8=Keith Urban - Tonight I Wanna Cry
TTITLE9=Faith Hill - Breathe
TTITLE10=Miranda Lambert - Kerosene
TTITLE11=Tim McGraw - When the Stars Go Blue
TTITLE12=Dixie ChickS - Landslide
TTITLE13=Dixie Chicks - Travelin' Soldier
TTITLE14=Lee Ann Womack - I Hope You Dance
TTITLE15=Deana Carter - Strawberry Wine
TTITLE16=Shania Twain - Forever and For Always
TTITLE17=Garth Brooks - Dance, The
TTITLE18=Extra - Extra
EXTD=
EXTT0=
EXTT1=
EXTT2=
EXTT3=
EXTT4=
EXTT5=
EXTT6=
EXTT7=
EXTT8=
EXTT9=
EXTT10=
EXTT11=
EXTT12=
EXTT13=
EXTT14=
EXTT15=
EXTT16=
EXTT17=
EXTT18=Data/text file.
PLAYORDER=
